# xmcd CD database file generated by freedbAccess_ocx
#
# Track frame offsets:
#       150
#       18679
#       35436
#       43110
#       55888
#       69749
#       77963
#       91455
#       99962
#       113831
#       123336
#       136467
#       149838
#       163777
#       175083
#       188632
#       199983
#       220595
#       231449
#       243617
#
# Disc length: 3365 seconds
#
# Revision: 0
# Processed by: cddbd v1.4PL0 Copyright (c) Steve Scherf et al.
# Submitted via: CDnGo 1.95
#
DISCID=2c0d2314
DTITLE=Burl Ives - The Best of Burl Ives
DYEAR=2001
DGENRE=Country
TTITLE0=Big Rock Candy Mountain
TTITLE1=John Henry
TTITLE2=Goober Peas
TTITLE3=Bow Down
TTITLE4=Old Front Porch
TTITLE5=Funny Way Of Laughing
TTITLE6=Green, Green Grass Of Home
TTITLE7=A Little Bitty Tear Let Me Down
TTITLE8=Coming After Jenny
TTITLE9=Galisteo
TTITLE10=Time
TTITLE11=Snowbird
TTITLE12=Roll Up Some Inspiration
TTITLE13=Raindrops Keep Falling On My Head
TTITLE14=One More Time Billy Brown
TTITLE15=Tied Down Here At Home
TTITLE16=Jesse James
TTITLE17=Cowboy's Lament (Streets of Laredo)
TTITLE18=The Blue Tail Fly
TTITLE19=On Top Of Old Smokey
EXTD=
EXTT0=
EXTT1=
EXTT2=
EXTT3=
EXTT4=
EXTT5=
EXTT6=
EXTT7=
EXTT8=
EXTT9=
EXTT10=
EXTT11=
EXTT12=
EXTT13=
EXTT14=
EXTT15=
EXTT16=
EXTT17=
EXTT18=
EXTT19=
PLAYORDER=
